<?xml version="1.0" encoding="utf-8"?>
<!-- Generator: Adobe Illustrator 25.2.3, SVG Export Plug-In . SVG Version: 6.00 Build 0)  -->
<svg version="1.1" id="Layer_1" xmlns="http://www.w3.org/2000/svg" xmlns:xlink="http://www.w3.org/1999/xlink" x="0px" y="0px"
	 viewBox="0 0 69 70" style="enable-background:new 0 0 69 70;" xml:space="preserve">
<path d="M12.9,45.4v-2.2H8.6v2.2c0,4,1.6,7.8,4.4,10.7c2.8,2.8,6.7,4.4,10.7,4.4h6.5v-4.3h-6.5c-2.9,0-5.6-1.1-7.6-3.2
	C14.1,51,12.9,48.2,12.9,45.4z"/>
<path d="M51.8,23.8V26h4.3v-2.2c0-4-1.6-7.8-4.4-10.7C48.8,10.3,45,8.7,41,8.7h-6.5V13H41c1.4,0,2.8,0.3,4.1,0.8
	c1.3,0.5,2.5,1.3,3.5,2.3c1,1,1.8,2.2,2.3,3.5C51.5,21,51.8,22.4,51.8,23.8z"/>
<path d="M23.7,23.8H10.8c-1.7,0-3.4,0.7-4.6,1.9c-1.2,1.2-1.9,2.9-1.9,4.6v4.3h4.3v-4.3c0-0.6,0.2-1.1,0.6-1.5
	c0.4-0.4,1-0.6,1.5-0.6h12.9c0.6,0,1.1,0.2,1.5,0.6c0.4,0.4,0.6,1,0.6,1.5v4.3h4.3v-4.3c0-1.7-0.7-3.4-1.9-4.6
	C27.1,24.5,25.4,23.8,23.7,23.8z"/>
<path d="M17.2,21.7c1.7,0,3.4-0.5,4.8-1.5c1.4-0.9,2.5-2.3,3.2-3.9s0.8-3.3,0.5-5c-0.3-1.7-1.2-3.2-2.4-4.4c-1.2-1.2-2.7-2-4.4-2.4
	c-1.7-0.3-3.4-0.2-5,0.5c-1.6,0.7-2.9,1.8-3.9,3.2C9.1,9.7,8.6,11.3,8.6,13c0,2.3,0.9,4.5,2.5,6.1S15,21.7,17.2,21.7z M17.2,8.7
	c0.9,0,1.7,0.3,2.4,0.7c0.7,0.5,1.3,1.1,1.6,1.9c0.3,0.8,0.4,1.7,0.2,2.5c-0.2,0.8-0.6,1.6-1.2,2.2c-0.6,0.6-1.4,1-2.2,1.2
	c-0.8,0.2-1.7,0.1-2.5-0.2c-0.8-0.3-1.5-0.9-1.9-1.6c-0.5-0.7-0.7-1.5-0.7-2.4c0-1.1,0.5-2.2,1.3-3C15,9.2,16.1,8.7,17.2,8.7z"/>
<path d="M58.2,54H45.3c-1.7,0-3.4,0.7-4.6,1.9c-1.2,1.2-1.9,2.9-1.9,4.6v4.3h4.3v-4.3c0-0.6,0.2-1.1,0.6-1.5c0.4-0.4,1-0.6,1.5-0.6
	h12.9c0.6,0,1.1,0.2,1.5,0.6c0.4,0.4,0.6,1,0.6,1.5v4.3h4.3v-4.3c0-1.7-0.7-3.4-1.9-4.6C61.6,54.7,59.9,54,58.2,54z"/>
<path d="M43.1,43.2c0,1.7,0.5,3.4,1.5,4.8c0.9,1.4,2.3,2.5,3.9,3.2c1.6,0.7,3.3,0.8,5,0.5c1.7-0.3,3.2-1.2,4.4-2.4
	c1.2-1.2,2-2.7,2.4-4.4c0.3-1.7,0.2-3.4-0.5-5c-0.7-1.6-1.8-2.9-3.2-3.9c-1.4-0.9-3.1-1.5-4.8-1.5c-2.3,0-4.5,0.9-6.1,2.5
	S43.1,40.9,43.1,43.2z M56.1,43.2c0,0.9-0.3,1.7-0.7,2.4c-0.5,0.7-1.1,1.3-1.9,1.6c-0.8,0.3-1.7,0.4-2.5,0.2
	c-0.8-0.2-1.6-0.6-2.2-1.2c-0.6-0.6-1-1.4-1.2-2.2c-0.2-0.8-0.1-1.7,0.2-2.5c0.3-0.8,0.9-1.5,1.6-1.9c0.7-0.5,1.5-0.7,2.4-0.7
	c1.1,0,2.2,0.5,3,1.3C55.6,41,56.1,42.1,56.1,43.2z"/>
</svg>
