<svg width="25" height="24" viewBox="0 0 25 24" fill="none" xmlns="http://www.w3.org/2000/svg">
<path d="M17.8636 4.09L15.3336 6.03L16.2436 9.09L13.6136 7.28L10.9836 9.09L11.8936 6.03L9.36359 4.09L12.5536 4L13.6136 1L14.6736 4L17.8636 4.09ZM21.3636 11L19.7236 12.25L20.3136 14.23L18.6136 13.06L16.9136 14.23L17.5036 12.25L15.8636 11L17.9236 10.95L18.6136 9L19.3036 10.95L21.3636 11ZM19.0836 15.95C19.9136 15.87 20.8036 17.05 20.2736 17.8C19.9536 18.25 19.6136 18.67 19.1936 19.07C15.2836 23 8.95359 23 5.05359 19.07C1.14359 15.17 1.14359 8.83 5.05359 4.93C5.45359 4.53 5.87359 4.17 6.32359 3.85C7.07359 3.32 8.25359 4.21 8.17359 5.04C7.90359 7.9 8.86359 10.87 11.0636 13.06C12.1032 14.1052 13.3619 14.9066 14.7488 15.4064C16.1357 15.9062 17.6162 16.0918 19.0836 15.95ZM17.4436 17.97C14.5079 17.8012 11.7346 16.5675 9.64359 14.5C7.47359 12.31 6.31359 9.5 6.15359 6.68C3.34359 9.82 3.45359 14.64 6.46359 17.66C9.48359 20.67 14.3036 20.78 17.4436 17.97Z" fill="black"/>
</svg>
