<?xml version="1.0" encoding="utf-8"?>
<!-- Generator: Adobe Illustrator 25.2.3, SVG Export Plug-In . SVG Version: 6.00 Build 0)  -->
<svg version="1.1" id="Layer_1" xmlns="http://www.w3.org/2000/svg" xmlns:xlink="http://www.w3.org/1999/xlink" x="0px" y="0px"
	 viewBox="0 0 70 70" style="enable-background:new 0 0 70 70;" xml:space="preserve">
<path d="M34.8,8.7c2.2,0,4.3,0.6,6,1.8c1.8,1.2,3.2,2.9,4,4.9c0.8,2,1,4.1,0.6,6.2c-0.4,2.1-1.5,4-3,5.5c-1.5,1.5-3.5,2.5-5.6,3
	c-2.1,0.4-4.3,0.2-6.3-0.6c-2-0.8-3.7-2.2-4.9-4c-1.2-1.8-1.8-3.9-1.8-6c0-2.9,1.1-5.6,3.2-7.6C29.1,9.9,31.9,8.7,34.8,8.7z
	 M34.8,4.4c-3,0-6,0.9-8.5,2.6s-4.5,4-5.6,6.8c-1.2,2.8-1.5,5.8-0.9,8.7c0.6,2.9,2,5.6,4.2,7.7c2.1,2.1,4.8,3.6,7.8,4.1
	c3,0.6,6,0.3,8.8-0.9c2.8-1.1,5.2-3.1,6.8-5.6c1.7-2.5,2.6-5.4,2.6-8.4c0-4-1.6-7.9-4.5-10.7C42.7,6,38.8,4.4,34.8,4.4z"/>
<path d="M56.5,65h-4.3V54.1c0-1.4-0.3-2.8-0.8-4.1c-0.5-1.3-1.3-2.5-2.4-3.5c-1-1-2.2-1.8-3.5-2.3c-1.3-0.5-2.7-0.8-4.2-0.8h-13
	c-2.9,0-5.6,1.1-7.7,3.2s-3.2,4.8-3.2,7.6V65H13V54.1c0-4,1.6-7.9,4.5-10.7S24.2,39,28.3,39h13c4,0,7.9,1.6,10.8,4.4
	c2.9,2.8,4.5,6.7,4.5,10.7V65z"/>
</svg>
