<?xml version="1.0" encoding="utf-8"?>
<!-- Generator: Adobe Illustrator 25.2.3, SVG Export Plug-In . SVG Version: 6.00 Build 0)  -->
<svg version="1.1" id="Layer_1" xmlns="http://www.w3.org/2000/svg" xmlns:xlink="http://www.w3.org/1999/xlink" x="0px" y="0px"
	 viewBox="0 0 70 70" style="enable-background:new 0 0 70 70;" xml:space="preserve">
<path d="M60.9,4.4H35c-1.1,0-2.2,0.5-3.1,1.3c-0.8,0.8-1.3,1.9-1.3,3.1v21.6H9c-1.1,0-2.2,0.5-3.1,1.3c-0.8,0.8-1.3,1.9-1.3,3.1V65
	h60.5V8.7c0-1.1-0.5-2.2-1.3-3.1C63.2,4.9,62.1,4.4,60.9,4.4z M19.9,60.6V45.5h8.6v15.1H19.9z M60.9,60.6H32.8V43.3
	c0-0.6-0.2-1.1-0.6-1.5c-0.4-0.4-1-0.6-1.5-0.6h-13c-0.6,0-1.1,0.2-1.5,0.6c-0.4,0.4-0.6,1-0.6,1.5v17.3H9V34.7H35V8.7h25.9V60.6z"
	/>
<path d="M39.3,17.4h4.3v4.3h-4.3V17.4z"/>
<path d="M52.3,17.4h4.3v4.3h-4.3V17.4z"/>
<path d="M39.3,30.4h4.3v4.3h-4.3V30.4z"/>
<path d="M52.3,30.4h4.3v4.3h-4.3V30.4z"/>
<path d="M39.3,43.3h4.3v4.3h-4.3V43.3z"/>
<path d="M52.3,43.3h4.3v4.3h-4.3V43.3z"/>
</svg>
