<svg id="Layer_1" data-name="Layer 1" xmlns="http://www.w3.org/2000/svg" viewBox="0 0 90 90"><path d="M59.49,39.82a1.5,1.5,0,0,0,3,0,11.23,11.23,0,0,0-11-11.21V23.53a1.5,1.5,0,0,0-3,0v5.08A11.21,11.21,0,0,0,48.5,51V67.48a8.23,8.23,0,0,1-8-8.22,1.5,1.5,0,0,0-3,0,11.23,11.23,0,0,0,11,11.22v6a1.5,1.5,0,0,0,3,0v-6a11.22,11.22,0,0,0,0-22.43V31.6A8.23,8.23,0,0,1,59.49,39.82Zm-19,0a8.22,8.22,0,0,1,8-8.21V48A8.23,8.23,0,0,1,40.51,39.82Zm19,19.44a8.23,8.23,0,0,1-8,8.22V51.05A8.23,8.23,0,0,1,59.49,59.26Z" transform="translate(-5 -5)"/><path d="M50,12.81A37.19,37.19,0,1,0,87.19,50,37.23,37.23,0,0,0,50,12.81Zm0,71.38A34.19,34.19,0,1,1,84.19,50,34.23,34.23,0,0,1,50,84.19Z" transform="translate(-5 -5)"/><path d="M50,5A45,45,0,1,0,95,50,45.05,45.05,0,0,0,50,5Zm0,87A42,42,0,1,1,92,50,42,42,0,0,1,50,92Z" transform="translate(-5 -5)"/></svg>