<svg id="Layer_1" data-name="Layer 1" xmlns="http://www.w3.org/2000/svg" viewBox="0 0 24 20.98"><defs><style>.cls-1{fill-rule:evenodd;}</style></defs><path class="cls-1" d="M17.18,0a5.06,5.06,0,0,0-.55,0,7.21,7.21,0,0,0-4.71,2.57A7.27,7.27,0,0,0,7.09.21H6.87A6.71,6.71,0,0,0,0,6.7c-.14,3.36,2.15,6.2,3.89,8a38.54,38.54,0,0,0,7.77,6.09,1.19,1.19,0,0,0,.58.15,1.13,1.13,0,0,0,.63-.19A37.69,37.69,0,0,0,20.4,14.4c1.66-1.91,3.84-4.84,3.58-8.19A6.73,6.73,0,0,0,17.18,0m0,2A4.74,4.74,0,0,1,22,6.37c.21,2.59-1.66,5.08-3.09,6.72a36.59,36.59,0,0,1-6.66,5.74,36.16,36.16,0,0,1-6.88-5.46C3.87,11.79,1.9,9.38,2,6.78A4.69,4.69,0,0,1,6.86,2.21H7A5.25,5.25,0,0,1,10.48,4L12,5.52l1.44-1.6A5.28,5.28,0,0,1,16.8,2h.38" transform="translate(0 0)"/></svg>