<svg id="Layer_1" data-name="Layer 1" xmlns="http://www.w3.org/2000/svg" viewBox="0 0 96.4 96.4"><path d="M79.1,71.5l3.5,2,.1-.2a39.79,39.79,0,0,0,7.5-23.4A40.29,40.29,0,0,0,50.1,9.2,40.45,40.45,0,0,0,50,90.1a36.79,36.79,0,0,0,11.1-1.6l.2-.1-.8-4-.3.1a37,37,0,0,1-10.4,1.6A36.19,36.19,0,1,1,79.1,71.3Z" transform="translate(-1.8 -1.8)"/><path d="M84.2,16A47.73,47.73,0,0,0,50.1,1.8,45.69,45.69,0,0,0,37.2,3.6l-.2.1.7,3.7.3-.1A45.89,45.89,0,0,1,50.1,5.6,44.45,44.45,0,1,1,5.6,49.9a43.91,43.91,0,0,1,8.2-25.7L14,24l-3.3-1.9-.1.2A47.36,47.36,0,0,0,1.8,50.1,48.2,48.2,0,1,0,84.2,16Z" transform="translate(-1.8 -1.8)"/><polygon points="34.2 43.5 29 48.7 43.3 63 67.3 39 62.1 33.8 43.3 52.6 34.2 43.5"/></svg>