<?xml version="1.0" encoding="utf-8"?>
<!-- Generator: Adobe Illustrator 25.2.3, SVG Export Plug-In . SVG Version: 6.00 Build 0)  -->
<svg version="1.1" id="Layer_1" xmlns="http://www.w3.org/2000/svg" xmlns:xlink="http://www.w3.org/1999/xlink" x="0px" y="0px"
	 viewBox="0 0 61 62" style="enable-background:new 0 0 61 62;" xml:space="preserve">
<path d="M19.1,57.3h-3.8v-5.7H7.6v5.7H3.8v-5.7c0-1,0.4-2,1.1-2.7c0.7-0.7,1.7-1.1,2.7-1.1h7.6c1,0,2,0.4,2.7,1.1
	c0.7,0.7,1.1,1.7,1.1,2.7V57.3z"/>
<path d="M57.2,57.3h-3.8v-5.7h-7.6v5.7h-3.8v-5.7c0-1,0.4-2,1.1-2.7c0.7-0.7,1.7-1.1,2.7-1.1h7.6c1,0,2,0.4,2.7,1.1
	c0.7,0.7,1.1,1.7,1.1,2.7V57.3z"/>
<path d="M38.1,57.3h-3.8v-5.7h-7.6v5.7h-3.8v-5.7c0-1,0.4-2,1.1-2.7c0.7-0.7,1.7-1.1,2.7-1.1h7.6c1,0,2,0.4,2.7,1.1
	c0.7,0.7,1.1,1.7,1.1,2.7V57.3z"/>
<path d="M30.5,45.9c2.1,0,3.8-1.7,3.8-3.8c0-2.1-1.7-3.8-3.8-3.8s-3.8,1.7-3.8,3.8C26.7,44.1,28.4,45.9,30.5,45.9z"/>
<path d="M11.4,45.9c2.1,0,3.8-1.7,3.8-3.8c0-2.1-1.7-3.8-3.8-3.8c-2.1,0-3.8,1.7-3.8,3.8C7.6,44.1,9.3,45.9,11.4,45.9z"/>
<path d="M49.6,45.9c2.1,0,3.8-1.7,3.8-3.8c0-2.1-1.7-3.8-3.8-3.8s-3.8,1.7-3.8,3.8C45.8,44.1,47.5,45.9,49.6,45.9z"/>
<path d="M40,38.2c2.1,0,3.8-1.7,3.8-3.8c0-2.1-1.7-3.8-3.8-3.8c-2.1,0-3.8,1.7-3.8,3.8C36.2,36.5,37.9,38.2,40,38.2z"/>
<path d="M21,38.2c2.1,0,3.8-1.7,3.8-3.8c0-2.1-1.7-3.8-3.8-3.8c-2.1,0-3.8,1.7-3.8,3.8C17.2,36.5,18.9,38.2,21,38.2z"/>
<path d="M49.6,26.8H11.4c-1,0-2-0.4-2.7-1.1C8,25,7.6,24,7.6,23V7.7c0-1,0.4-2,1.1-2.7c0.7-0.7,1.7-1.1,2.7-1.1h38.1
	c1,0,2,0.4,2.7,1.1c0.7,0.7,1.1,1.7,1.1,2.7V23c0,1-0.4,2-1.1,2.7C51.5,26.4,50.6,26.8,49.6,26.8z M11.4,7.7V23h38.1V7.7H11.4z"/>
</svg>
