<svg width="32" height="32" viewBox="0 0 32 32" fill="none" xmlns="http://www.w3.org/2000/svg">
<path d="M25.0417 4C25.7268 4 26.3839 4.28095 26.8684 4.78105C27.3528 5.28115 27.625 5.95942 27.625 6.66667V25.3333C27.625 26.0406 27.3528 26.7189 26.8684 27.219C26.3839 27.719 25.7268 28 25.0417 28H6.95833C6.27319 28 5.61611 27.719 5.13164 27.219C4.64717 26.7189 4.375 26.0406 4.375 25.3333V6.66667C4.375 5.95942 4.64717 5.28115 5.13164 4.78105C5.61611 4.28095 6.27319 4 6.95833 4H25.0417ZM24.3958 24.6667V17.6C24.3958 16.4472 23.9522 15.3416 23.1625 14.5264C22.3728 13.7113 21.3018 13.2533 20.185 13.2533C19.0871 13.2533 17.8083 13.9467 17.1883 14.9867V13.5067H13.5846V24.6667H17.1883V18.0933C17.1883 17.0667 17.9892 16.2267 18.9838 16.2267C19.4634 16.2267 19.9233 16.4233 20.2624 16.7734C20.6016 17.1235 20.7921 17.5983 20.7921 18.0933V24.6667H24.3958ZM9.38667 11.4133C9.96219 11.4133 10.5141 11.1773 10.9211 10.7573C11.328 10.3372 11.5567 9.76742 11.5567 9.17333C11.5567 7.93333 10.5879 6.92 9.38667 6.92C8.80772 6.92 8.25249 7.1574 7.84311 7.57999C7.43373 8.00257 7.20375 8.57571 7.20375 9.17333C7.20375 10.4133 8.18542 11.4133 9.38667 11.4133ZM11.1821 24.6667V13.5067H7.60417V24.6667H11.1821Z" fill="#000"/>
</svg>
