<svg width="32" height="32" viewBox="0 0 32 32" fill="none" xmlns="http://www.w3.org/2000/svg">
<path d="M16.0007 2.66663C14.3044 2.66663 12.6248 3.0115 11.0577 3.68157C9.49053 4.35163 8.06661 5.33375 6.86719 6.57187C4.44484 9.07235 3.08398 12.4637 3.08398 16C3.08398 21.8933 6.79107 26.8933 11.919 28.6666C12.5648 28.7733 12.7715 28.36 12.7715 28V25.7466C9.19357 26.5466 8.43148 23.96 8.43148 23.96C7.83732 22.4133 6.99773 22 6.99773 22C5.82232 21.1733 7.08815 21.2 7.08815 21.2C8.37982 21.2933 9.0644 22.5733 9.0644 22.5733C10.1882 24.6 12.0869 24 12.8232 23.68C12.9394 22.8133 13.2752 22.2266 13.6369 21.8933C10.7694 21.56 7.75982 20.4133 7.75982 15.3333C7.75982 13.8533 8.25065 12.6666 9.09023 11.72C8.96107 11.3866 8.50898 9.99996 9.2194 8.19996C9.2194 8.19996 10.3044 7.83996 12.7715 9.55996C13.7919 9.26663 14.9027 9.11996 16.0007 9.11996C17.0986 9.11996 18.2094 9.26663 19.2298 9.55996C21.6969 7.83996 22.7819 8.19996 22.7819 8.19996C23.4923 9.99996 23.0402 11.3866 22.9111 11.72C23.7507 12.6666 24.2415 13.8533 24.2415 15.3333C24.2415 20.4266 21.219 21.5466 18.3386 21.88C18.8036 22.2933 19.2298 23.1066 19.2298 24.3466V28C19.2298 28.36 19.4365 28.7866 20.0952 28.6666C25.2232 26.88 28.9173 21.8933 28.9173 16C28.9173 14.249 28.5832 12.5152 27.9341 10.8975C27.285 9.27984 26.3335 7.80998 25.1341 6.57187C23.9347 5.33375 22.5108 4.35163 20.9436 3.68157C19.3765 3.0115 17.6969 2.66663 16.0007 2.66663Z" fill="#000"/>
</svg>
