<svg width="24" height="24" viewBox="0 0 24 24" fill="none" xmlns="http://www.w3.org/2000/svg">
<path d="M3.55 18.54L4.96 19.95L6.76 18.16L5.34 16.74L3.55 18.54ZM11 22.45H13V19.5H11V22.45ZM12 5.5C10.4087 5.5 8.88258 6.13214 7.75736 7.25736C6.63214 8.38257 6 9.9087 6 11.5C6 13.0913 6.63214 14.6174 7.75736 15.7426C8.88258 16.8679 10.4087 17.5 12 17.5C13.5913 17.5 15.1174 16.8679 16.2426 15.7426C17.3679 14.6174 18 13.0913 18 11.5C18 8.18 15.31 5.5 12 5.5ZM20 12.5H23V10.5H20V12.5ZM17.24 18.16L19.04 19.95L20.45 18.54L18.66 16.74L17.24 18.16ZM20.45 4.46L19.04 3.05L17.24 4.84L18.66 6.26L20.45 4.46ZM13 0.549997H11V3.5H13V0.549997ZM4 10.5H1V12.5H4V10.5ZM6.76 4.84L4.96 3.05L3.55 4.46L5.34 6.26L6.76 4.84Z" fill="black"/>
</svg>
