<svg width="130" height="27" viewBox="0 0 130 27" fill="none" xmlns="http://www.w3.org/2000/svg">
<path d="M82.043 0C85.1089 0 87.2256 2.1438 87.2256 5.2488V9.5364H81.9698V6.28354C81.9698 5.47046 81.5321 5.02689 80.729 5.02689H75.036C74.2329 5.02689 73.7949 5.47046 73.7949 6.28354V20.6249C73.7949 21.4383 74.2329 21.8816 75.036 21.8816H80.7293C81.5324 21.8816 81.9701 21.4383 81.9701 20.6249V17.3726H87.2259V21.6602C87.2259 24.7649 85.1091 26.909 82.0432 26.909H73.7221C70.6562 26.909 68.5394 24.7649 68.5394 21.6602V5.2488C68.5391 2.1438 70.6562 0 73.7218 0H82.043ZM13.4307 0.147857C16.4966 0.147857 18.6134 2.29166 18.6134 5.3964V12.1238C18.6134 15.2285 16.4966 17.3723 13.4307 17.3723H5.2558V26.7606H0V0.148114H13.4307V0.147857ZM33.5035 0.147857L41.9707 26.7609H36.3137L34.5984 20.7728H26.0946L24.3427 26.7609H18.9051L27.372 0.147857H33.5035ZM58.8317 0.147857C61.8973 0.147857 64.0138 2.29166 64.0138 5.3964V11.6434C64.0138 14.1567 62.6273 16.0419 60.4376 16.6703L64.8169 26.7611H59.16L54.9264 16.892H50.6928V26.7611H45.4372V0.147857H58.8317ZM109.086 0.147857V5.17474H97.1517V10.6452H106.823V15.6721H97.1517V21.7337H109.086V26.7606H91.8964V0.147857H109.086ZM118.976 0.147857V21.7337H129.998V26.7606H113.721V0.147857H118.976H118.976ZM81.3861 2.1438H74.3789C72.1161 2.1438 70.8022 3.47451 70.8022 5.76617V21.1423C70.8022 23.4339 72.1161 24.7644 74.3789 24.7644H81.3864C83.6492 24.7644 84.9631 23.4339 84.9631 21.1423V19.5159H84.2331V21.1423C84.2331 22.9904 83.2112 24.0254 81.3864 24.0254H74.3784C72.5536 24.0254 71.5316 22.9904 71.5316 21.1423V5.76617C71.5316 3.91809 72.5536 2.88309 74.3784 2.88309H81.3859C83.2107 2.88309 84.2326 3.91809 84.2326 5.76617V7.4664H84.9626V5.76617C84.9626 3.47451 83.6487 2.1438 81.3859 2.1438H81.3861ZM12.7739 2.29166H2.26304V24.6168H2.99301V15.2285H12.7739C15.0367 15.2285 16.3506 13.8978 16.3506 11.6061V5.91429C16.3506 3.62263 15.0367 2.29191 12.7739 2.29191V2.29166ZM32.117 2.29166H28.7591L21.8979 24.6168H22.5913L24.4161 18.629H36.3871L38.1754 24.6171H38.8685L32.117 2.29166ZM58.1751 2.29166H47.7003V24.6168H48.4303V14.7852H56.4594L60.6933 24.6173H61.4596L57.226 14.7852H58.1748C60.4378 14.7852 61.7515 13.4545 61.7515 11.1628V5.91429C61.7515 3.62263 60.4378 2.29191 58.1748 2.29191L58.1751 2.29166ZM106.824 2.29166H94.1595V24.6168H106.824V23.8778H94.8895V13.5283H104.561V12.789H94.8895V3.03094H106.824V2.29166ZM116.714 2.29166H115.984V24.6168H127.736V23.8778H116.714V2.29166ZM31.679 3.03094L36.168 17.8899H24.6347L29.1968 3.03094H31.6787H31.679ZM30.4016 5.98809L27.5548 15.7459H33.1752L30.4016 5.98783V5.98809ZM12.7741 3.03094C14.5989 3.03094 15.6209 4.06594 15.6209 5.91403V11.6061C15.6209 13.4542 14.5989 14.4892 12.7741 14.4892H2.99276V3.03094H12.7739H12.7741ZM58.1748 3.03094C59.9996 3.03094 61.0216 4.06594 61.0216 5.91403V11.1626C61.0216 13.0107 59.9996 14.0457 58.1748 14.0457H48.4303V3.03094H58.1751H58.1748ZM12.117 5.17474H5.25554V12.3454H12.117C12.9199 12.3454 13.3578 11.9019 13.3578 11.0888V6.43114C13.3578 5.61806 12.9199 5.17449 12.117 5.17449V5.17474ZM57.5175 5.17474H50.6925V11.9389H57.5175C58.3205 11.9389 58.7585 11.4953 58.7585 10.6822V6.43166C58.7585 5.61831 58.3205 5.17474 57.5177 5.17474H57.5175Z" fill="black"/>
</svg>
