<svg width="64" height="64" viewBox="0 0 64 64" fill="none" xmlns="http://www.w3.org/2000/svg">
<path d="M32 4.93359C31.28 4.93359 30.5333 5.12026 29.92 5.46693L10.08 16.9336C8.8 17.6803 8 19.0669 8 20.5603V43.4403C8 44.9336 8.8 46.3203 10.08 47.0669L15.28 50.0536C17.8133 51.2803 18.6667 51.3069 19.84 51.3069C23.5733 51.3069 25.7333 49.0403 25.7333 45.0936V22.5069C25.7333 22.1869 25.4667 21.9203 25.1467 21.9203H22.6667C22.32 21.9203 22.0533 22.1869 22.0533 22.5069V45.0936C22.0533 46.8536 20.24 48.5869 17.3333 47.1203L11.8667 44.0003C11.7769 43.9369 11.7035 43.853 11.6525 43.7556C11.6015 43.6583 11.5743 43.5502 11.5733 43.4403V20.5603C11.5733 20.3203 11.68 20.1069 11.8667 20.0003L31.7067 8.56026C31.8667 8.45359 32.1333 8.45359 32.2933 8.56026L52.1333 20.0003C52.32 20.1069 52.4267 20.3203 52.4267 20.5603V43.4403C52.4267 43.6536 52.32 43.8669 52.1333 44.0003L32.2933 55.4403C32.1333 55.5469 31.8667 55.5469 31.68 55.4403L26.6667 52.4003C26.4533 52.3203 26.24 52.2936 26.1067 52.3736C24.6933 53.1736 24.4267 53.3336 23.12 53.7336C22.8 53.8403 22.2933 54.0269 23.3067 54.5869L29.92 58.5069C30.56 58.8803 31.2533 59.0669 32 59.0669C32.7467 59.0669 33.44 58.8803 34.08 58.5069L53.92 47.0669C55.2 46.3203 56 44.9336 56 43.4403V20.5603C56 19.0669 55.2 17.6803 53.92 16.9336L34.08 5.46693C33.4667 5.12026 32.7467 4.93359 32 4.93359ZM37.3333 21.3336C31.68 21.3336 28.2933 23.7069 28.2933 27.7069C28.2933 32.0003 31.6533 33.2536 37.0933 33.7869C43.5733 34.4269 44.08 35.3869 44.08 36.6669C44.08 38.8803 42.2933 39.8136 38.1333 39.8136C32.8533 39.8136 31.7333 38.5069 31.3333 35.8936C31.3053 35.7585 31.2317 35.6372 31.1249 35.5498C31.0181 35.4625 30.8846 35.4144 30.7467 35.4136H28.1867C27.8667 35.4136 27.6267 35.6536 27.6267 36.0003C27.6267 39.3069 29.44 43.3069 38.1333 43.3069C44.4 43.3069 48 40.8269 48 36.5069C48 32.2136 45.12 31.0936 39.0133 30.2669C32.8533 29.4669 32.24 29.0403 32.24 27.6003C32.24 26.4003 32.7733 24.8003 37.3333 24.8003C41.3333 24.8003 42.9067 25.6803 43.52 28.4269C43.5733 28.6936 43.8133 28.8803 44.08 28.8803H46.6667C46.8 28.8803 46.96 28.8269 47.0667 28.6936C47.1733 28.5869 47.2533 28.4269 47.2 28.2669C46.8267 23.5203 43.68 21.3336 37.3333 21.3336Z" fill="black"/>
</svg>
