<svg width="64" height="64" viewBox="0 0 64 64" fill="none" xmlns="http://www.w3.org/2000/svg">
<path d="M25.3333 8C29.9304 8 34.3392 9.82618 37.5899 13.0768C40.8405 16.3274 42.6667 20.7362 42.6667 25.3333C42.6667 29.6267 41.0933 33.5733 38.5067 36.6133L39.2267 37.3333H41.3333L54.6667 50.6667L50.6667 54.6667L37.3333 41.3333V39.2267L36.6133 38.5067C33.4681 41.1914 29.4686 42.6664 25.3333 42.6667C20.7362 42.6667 16.3274 40.8405 13.0768 37.5899C9.82618 34.3392 8 29.9304 8 25.3333C8 20.7362 9.82618 16.3274 13.0768 13.0768C16.3274 9.82618 20.7362 8 25.3333 8ZM25.3333 13.3333C18.6667 13.3333 13.3333 18.6667 13.3333 25.3333C13.3333 32 18.6667 37.3333 25.3333 37.3333C32 37.3333 37.3333 32 37.3333 25.3333C37.3333 18.6667 32 13.3333 25.3333 13.3333Z" fill="black"/>
</svg>
