<svg width="64" height="64" viewBox="0 0 64 64" fill="none" xmlns="http://www.w3.org/2000/svg">
<path d="M8.00036 46.0004V56.0004H18.0004L47.4937 26.4804L37.4937 16.4804L8.00036 46.0004ZM60.2937 48.9604L48.9604 60.2937L35.0937 46.427L39.8137 41.707L42.4804 44.3737L49.067 37.7604L52.8537 41.547L48.9604 45.3337L51.787 48.0004L55.5737 44.267L60.2937 48.9604ZM17.627 28.8804L3.70703 15.0404L15.0404 3.70703L19.7337 8.42703L13.147 15.0404L16.0004 17.867L22.5604 11.2537L26.347 15.0404L22.5604 18.8004L25.227 21.467L17.627 28.8804ZM55.227 18.667C56.267 17.627 56.267 16.0004 55.227 14.907L48.987 8.7737C48.0004 7.7337 46.267 7.7337 45.227 8.7737L40.3204 13.6537L50.3204 23.6537L55.227 18.667Z" fill="black"/>
</svg>
