<svg width="64" height="64" viewBox="0 0 64 64" fill="none" xmlns="http://www.w3.org/2000/svg">
<path d="M6.93352 28.2397L22.3469 12.7997L26.8535 17.333C26.2135 19.5997 27.2535 22.0797 29.3335 23.2797V38.053C27.7335 38.9597 26.6669 40.693 26.6669 42.6664C26.6669 44.0809 27.2288 45.4374 28.2289 46.4376C29.2291 47.4378 30.5857 47.9997 32.0002 47.9997C33.4147 47.9997 34.7712 47.4378 35.7714 46.4376C36.7716 45.4374 37.3335 44.0809 37.3335 42.6664C37.3335 40.693 36.2669 38.9597 34.6669 38.053V25.093L40.1869 30.6664C40.0002 31.0664 40.0002 31.5197 40.0002 31.9997C40.0002 33.4142 40.5621 34.7707 41.5623 35.7709C42.5625 36.7711 43.919 37.333 45.3335 37.333C46.748 37.333 48.1046 36.7711 49.1048 35.7709C50.1049 34.7707 50.6669 33.4142 50.6669 31.9997C50.6669 30.5852 50.1049 29.2287 49.1048 28.2285C48.1046 27.2283 46.748 26.6664 45.3335 26.6664C44.8535 26.6664 44.4002 26.6664 44.0002 26.853L37.1469 19.9997C37.478 18.7646 37.3496 17.4513 36.7856 16.3037C36.2216 15.1561 35.2603 14.2521 34.0802 13.7597C32.9335 13.333 31.7335 13.2264 30.6669 13.5197L26.1335 9.01303L28.2402 6.93303C30.3202 4.82636 33.6802 4.82636 35.7602 6.93303L57.0668 28.2397C59.1735 30.3197 59.1735 33.6797 57.0668 35.7597L35.7602 57.0664C33.6802 59.173 30.3202 59.173 28.2402 57.0664L6.93352 35.7597C4.82685 33.6797 4.82685 30.3197 6.93352 28.2397Z" fill="black"/>
</svg>
