<svg width="64" height="64" viewBox="0 0 64 64" fill="none" xmlns="http://www.w3.org/2000/svg">
<path d="M13 36.6182C12.8011 36.6182 12.6103 36.6972 12.4697 36.8378C12.329 36.9785 12.25 37.1693 12.25 37.3682V37.7865C12.25 37.9854 12.329 38.1762 12.4697 38.3169C12.6103 38.4575 12.8011 38.5365 13 38.5365C13.1989 38.5365 13.3897 38.4575 13.5303 38.3169C13.671 38.1762 13.75 37.9854 13.75 37.7865V37.3682C13.75 37.1693 13.671 36.9785 13.5303 36.8378C13.3897 36.6972 13.1989 36.6182 13 36.6182Z" fill="black"/>
<path d="M13 39.8789C12.8011 39.8789 12.6103 39.9579 12.4697 40.0986C12.329 40.2392 12.25 40.43 12.25 40.6289V47.4922C12.25 47.6911 12.329 47.8818 12.4697 48.0225C12.6103 48.1631 12.8011 48.2422 13 48.2422C13.1989 48.2422 13.3897 48.1631 13.5303 48.0225C13.671 47.8818 13.75 47.6911 13.75 47.4922V40.6289C13.75 40.43 13.671 40.2392 13.5303 40.0986C13.3897 39.9579 13.1989 39.8789 13 39.8789Z" fill="black"/>
<path d="M60.7968 9.79502L36.6593 2.53252C36.4828 2.47942 36.2929 2.4932 36.1258 2.57122C35.9588 2.64925 35.8264 2.78605 35.7538 2.95552L32.2941 11.0345L28.2209 3.3864C28.1409 3.23614 28.0121 3.11759 27.8557 3.05023C27.6994 2.98288 27.5247 2.97072 27.3606 3.01577L3.22156 9.63627C3.11062 9.6667 3.00817 9.72223 2.92213 9.79858C2.83609 9.87493 2.76876 9.97004 2.72536 10.0766C2.68196 10.1831 2.66364 10.2982 2.67182 10.4129C2.68001 10.5277 2.71447 10.639 2.77256 10.7383L8.56281 20.6369L4.09181 29.1435C3.99956 29.319 3.98057 29.5239 4.03899 29.7134C4.09741 29.9029 4.22849 30.0616 4.40356 30.1546L9.12531 32.6655V49.8751C9.12545 50.0161 9.16529 50.1542 9.24025 50.2736C9.31522 50.3929 9.42228 50.4888 9.54918 50.5501L32.0408 61.4251C32.1426 61.4743 32.2543 61.4999 32.3674 61.4999C32.4805 61.4999 32.5921 61.4743 32.6939 61.4251L55.1939 50.5501C55.3217 50.4892 55.4299 50.3936 55.5061 50.2743C55.5824 50.155 55.6236 50.0167 55.6253 49.8751V32.6573L60.3314 30.1546C60.5065 30.0616 60.6376 29.9029 60.696 29.7134C60.7544 29.5239 60.7354 29.319 60.6432 29.1435L56.1607 20.6159L61.2457 10.8599C61.2967 10.762 61.3255 10.6541 61.33 10.5438C61.3345 10.4335 61.3146 10.3236 61.2717 10.2219C61.2289 10.1202 61.1641 10.0292 61.082 9.95538C60.9999 9.88159 60.9025 9.82684 60.7968 9.79502V9.79502ZM4.56081 10.8244L27.1788 4.6209L31.2913 12.3434L9.75856 19.7093L4.56081 10.8244ZM5.76693 29.1808L9.74306 21.6165L31.3611 32.4119L27.2617 40.6108L5.76693 29.1808ZM31.6253 59.5544L10.6253 49.4044V33.4627L27.2364 42.2958C27.3248 42.3428 27.4217 42.3716 27.5214 42.3806C27.621 42.3895 27.7215 42.3785 27.8168 42.348C27.9122 42.3175 28.0005 42.2683 28.0765 42.2032C28.1525 42.1381 28.2147 42.0584 28.2594 41.9689L31.6253 35.2376V59.5544ZM32.3676 31.2376L11.3592 20.747L32.3676 13.5606L53.3753 20.747L32.3676 31.2376ZM54.1253 49.4049L33.1253 59.5549V35.2688L36.4753 41.9694C36.5201 42.0589 36.5823 42.1386 36.6583 42.2036C36.7343 42.2687 36.8225 42.318 36.9179 42.3484C37.0132 42.3789 37.1136 42.39 37.2133 42.381C37.313 42.3721 37.4098 42.3432 37.4982 42.2963L54.1253 33.4549V49.4049ZM58.9682 29.1808L37.4733 40.6108L33.3733 32.4119L54.9914 21.6165L58.9682 29.1808ZM54.9471 19.6991L33.3753 12.32L36.8693 4.16152L59.4967 10.9703L54.9471 19.6991Z" fill="black"/>
</svg>
